# xmcd CD database file
#
# Track frame offsets:
#	150
#	23267
#	43655
#	59385
#	73730
#	92555
#	111205
#	122995
#	141060
#	159597
#
# Disc length: 2429 seconds
#
# Revision: 0
# Processed by: cddbd v1.5PL3 Copyright (c) Steve Scherf et al.
# Submitted via: CDex 1.50
#
DISCID=83097b0a
DTITLE=Flowered Up - A Life With Brian
DYEAR=1991
DGENRE=Rock
TTITLE0=Sunshine
TTITLE1=Take It
TTITLE2=Crackerjack
TTITLE3=Mr. Happy Reveller
TTITLE4=Hysterically Blue
TTITLE5=It's On
TTITLE6=Silver Pan
TTITLE7=Phobia
TTITLE8=Egg Rush
TTITLE9=Doris... Is A Little Bit Partial
EXTD=YEAR: 1991
EXTT0=
EXTT1=
EXTT2=
EXTT3=
EXTT4=
EXTT5=
EXTT6=
EXTT7=
EXTT8=
EXTT9=
PLAYORDER=
